<svg width="71" height="25" viewBox="0 0 71 25" fill="none" xmlns="http://www.w3.org/2000/svg">
<path d="M11.928 14.808H5.256L4.152 18H0.624L6.648 1.224H10.56L16.584 18H13.032L11.928 14.808ZM11.016 12.12L8.592 5.112L6.168 12.12H11.016ZM22.1957 0.24V18H18.8357V0.24H22.1957ZM28.8754 6.624C29.3074 6.016 29.8994 5.512 30.6514 5.112C31.4194 4.696 32.2914 4.488 33.2674 4.488C34.4034 4.488 35.4274 4.768 36.3394 5.328C37.2674 5.888 37.9954 6.688 38.5234 7.728C39.0674 8.752 39.3394 9.944 39.3394 11.304C39.3394 12.664 39.0674 13.872 38.5234 14.928C37.9954 15.968 37.2674 16.776 36.3394 17.352C35.4274 17.928 34.4034 18.216 33.2674 18.216C32.2914 18.216 31.4274 18.016 30.6754 17.616C29.9394 17.216 29.3394 16.712 28.8754 16.104V24.336H25.5154V4.704H28.8754V6.624ZM35.9074 11.304C35.9074 10.504 35.7394 9.816 35.4034 9.24C35.0834 8.648 34.6514 8.2 34.1074 7.896C33.5794 7.592 33.0034 7.44 32.3794 7.44C31.7714 7.44 31.1954 7.6 30.6514 7.92C30.1234 8.224 29.6914 8.672 29.3554 9.264C29.0354 9.856 28.8754 10.552 28.8754 11.352C28.8754 12.152 29.0354 12.848 29.3554 13.44C29.6914 14.032 30.1234 14.488 30.6514 14.808C31.1954 15.112 31.7714 15.264 32.3794 15.264C33.0034 15.264 33.5794 15.104 34.1074 14.784C34.6514 14.464 35.0834 14.008 35.4034 13.416C35.7394 12.824 35.9074 12.12 35.9074 11.304ZM49.269 4.512C50.277 4.512 51.173 4.736 51.957 5.184C52.741 5.616 53.349 6.264 53.781 7.128C54.229 7.976 54.453 9 54.453 10.2V18H51.093V10.656C51.093 9.6 50.829 8.792 50.301 8.232C49.773 7.656 49.053 7.368 48.141 7.368C47.213 7.368 46.477 7.656 45.933 8.232C45.405 8.792 45.141 9.6 45.141 10.656V18H41.781V0.24H45.141V6.36C45.573 5.784 46.149 5.336 46.869 5.016C47.589 4.68 48.389 4.512 49.269 4.512ZM56.7842 11.304C56.7842 9.96 57.0482 8.768 57.5762 7.728C58.1202 6.688 58.8482 5.888 59.7602 5.328C60.6882 4.768 61.7202 4.488 62.8562 4.488C63.8482 4.488 64.7122 4.688 65.4482 5.088C66.2002 5.488 66.8002 5.992 67.2482 6.6V4.704H70.6322V18H67.2482V16.056C66.8162 16.68 66.2162 17.2 65.4482 17.616C64.6962 18.016 63.8242 18.216 62.8322 18.216C61.7122 18.216 60.6882 17.928 59.7602 17.352C58.8482 16.776 58.1202 15.968 57.5762 14.928C57.0482 13.872 56.7842 12.664 56.7842 11.304ZM67.2482 11.352C67.2482 10.536 67.0882 9.84 66.7682 9.264C66.4482 8.672 66.0162 8.224 65.4722 7.92C64.9282 7.6 64.3442 7.44 63.7202 7.44C63.0962 7.44 62.5202 7.592 61.9922 7.896C61.4642 8.2 61.0322 8.648 60.6962 9.24C60.3762 9.816 60.2162 10.504 60.2162 11.304C60.2162 12.104 60.3762 12.808 60.6962 13.416C61.0322 14.008 61.4642 14.464 61.9922 14.784C62.5362 15.104 63.1122 15.264 63.7202 15.264C64.3442 15.264 64.9282 15.112 65.4722 14.808C66.0162 14.488 66.4482 14.04 66.7682 13.464C67.0882 12.872 67.2482 12.168 67.2482 11.352Z" fill="#22272B"/>
</svg>
